<?xml version="1.0" standalone="no"?>
<!DOCTYPE svg PUBLIC "-//W3C//DTD SVG 20010904//EN"
 "http://www.w3.org/TR/2001/REC-SVG-20010904/DTD/svg10.dtd">
<svg version="1.0" xmlns="http://www.w3.org/2000/svg"
 width="5885.000000pt" height="1812.000000pt" viewBox="0 0 5885.000000 1812.000000"
 preserveAspectRatio="xMidYMid meet">

<g transform="translate(0.000000,1812.000000) scale(0.100000,-0.100000)"
fill="#000000" stroke="none">
<path d="M20750 9175 l0 -5775 905 0 905 0 0 5775 0 5775 -905 0 -905 0 0
-5775z"/>
<path d="M24780 9175 l0 -5775 905 0 905 0 0 5775 0 5775 -905 0 -905 0 0
-5775z"/>
<path d="M33130 14809 c-1555 -89 -2791 -676 -3628 -1724 -115 -145 -277 -383
-373 -550 -232 -405 -438 -950 -548 -1450 -21 -95 -721 -3696 -765 -3937 -35
-189 -63 -403 -77 -597 -14 -202 -7 -577 16 -751 66 -514 232 -939 514 -1315
96 -127 297 -334 426 -438 394 -318 920 -541 1535 -651 866 -155 1999 -111
2840 110 298 78 652 210 899 333 773 389 1430 1031 1916 1876 86 149 318 596
312 601 -3 3 -226 99 -496 213 l-490 208 -68 -141 c-205 -428 -388 -732 -610
-1011 -112 -141 -389 -420 -519 -523 -503 -396 -1087 -607 -1904 -689 -246
-24 -860 -24 -1077 0 -710 80 -1195 277 -1567 637 -225 218 -362 436 -462 735
-82 246 -109 432 -108 750 0 234 9 357 45 569 42 256 771 3989 804 4121 109
429 289 838 513 1165 212 309 516 609 827 817 655 438 1519 644 2523 603 338
-14 529 -35 782 -86 708 -145 1148 -455 1416 -999 140 -285 212 -560 265
-1010 12 -104 25 -194 29 -198 6 -7 291 84 1056 334 l90 29 -27 243 c-16 133
-40 305 -54 382 -301 1621 -1438 2363 -3605 2353 -157 0 -350 -5 -430 -9z"/>
<path d="M5625 14710 c-1157 -48 -2091 -352 -2786 -910 -747 -598 -1188 -1420
-1318 -2455 -41 -328 -43 -434 -39 -2515 4 -2200 1 -2070 69 -2479 157 -948
591 -1711 1289 -2268 567 -453 1309 -746 2175 -858 498 -65 1188 -73 1690 -19
1345 142 2313 646 2967 1545 171 234 361 587 477 884 83 214 225 645 215 654
-13 11 -1843 655 -1847 650 -2 -2 -54 -139 -116 -304 -194 -521 -314 -730
-564 -984 -244 -247 -527 -412 -902 -526 -503 -152 -1196 -174 -1785 -55 -707
142 -1229 525 -1496 1096 -80 171 -135 361 -181 621 -16 90 -17 259 -20 2098
-4 2156 -5 2117 48 2374 181 889 824 1443 1844 1590 366 53 795 55 1150 5 735
-102 1257 -403 1598 -919 104 -158 197 -365 302 -670 52 -154 98 -286 100
-292 2 -7 8 -13 13 -13 10 0 1856 630 1861 636 6 6 -236 665 -292 794 -469
1083 -1256 1771 -2408 2105 -427 124 -887 193 -1435 215 -262 10 -341 10 -609
0z"/>
<path d="M41690 11773 c-1118 -49 -2024 -390 -2716 -1021 -463 -423 -790 -982
-953 -1627 -35 -140 -581 -2947 -611 -3140 -81 -534 -21 -1025 175 -1414 316
-631 955 -1048 1829 -1196 628 -106 1404 -91 2037 40 660 136 1227 397 1714
789 558 450 951 1095 1114 1831 40 179 572 2933 592 3065 27 171 37 558 19
711 -56 490 -237 876 -561 1196 -126 124 -199 184 -344 279 -364 240 -835 393
-1405 458 -261 30 -615 41 -890 29z m445 -964 c428 -39 779 -147 1055 -326
334 -217 537 -517 607 -897 21 -112 23 -423 4 -541 -17 -107 -545 -2834 -572
-2955 -56 -254 -181 -549 -314 -745 -373 -550 -1002 -918 -1780 -1041 -270
-42 -727 -58 -995 -34 -596 54 -1041 241 -1347 564 -175 184 -282 401 -328
661 -23 128 -24 387 -2 535 21 136 562 2921 587 3021 179 702 670 1241 1406
1543 464 190 1084 269 1679 215z"/>
<path d="M49891 11769 c-666 -31 -1382 -175 -1996 -399 -175 -64 -865 -346
-878 -359 -6 -6 -1457 -7457 -1457 -7483 0 -4 239 -8 530 -8 292 0 530 2 530
5 0 4 1313 6774 1326 6837 5 23 23 33 177 96 211 86 341 132 521 183 642 182
1446 221 1946 94 273 -69 479 -183 646 -356 161 -168 257 -370 311 -652 27
-143 25 -562 -5 -752 -12 -77 -254 -1334 -537 -2794 -283 -1460 -515 -2656
-515 -2658 0 -1 234 -3 520 -3 408 0 522 3 525 13 9 25 1035 5326 1054 5447
38 234 46 343 46 600 -1 272 -12 382 -59 590 -13 58 -21 108 -18 112 12 12
260 118 417 178 454 174 889 279 1375 332 155 16 657 17 780 0 579 -78 926
-295 1115 -694 140 -298 171 -713 90 -1203 -13 -77 -251 -1313 -529 -2746
-278 -1433 -506 -2611 -506 -2617 0 -9 126 -12 520 -12 l520 0 5 23 c23 97
1041 5367 1060 5487 56 355 72 771 40 1040 -100 851 -557 1380 -1378 1595
-302 79 -561 108 -967 109 -434 1 -742 -31 -1220 -125 -481 -94 -1100 -283
-1638 -498 l-103 -41 -102 95 c-140 131 -256 212 -430 300 -437 220 -958 300
-1716 264z"/>
<path d="M14940 11713 c-972 -52 -1697 -291 -2260 -746 -116 -94 -326 -304
-411 -412 -320 -405 -511 -878 -584 -1448 -31 -246 -37 -533 -32 -1822 4
-1362 4 -1371 58 -1675 174 -995 778 -1743 1720 -2130 485 -199 1009 -295
1689 -307 902 -16 1598 119 2203 429 273 140 489 298 713 522 228 229 366 420
499 691 178 365 272 735 305 1205 13 198 13 2650 0 2852 -46 672 -245 1223
-607 1678 -86 109 -303 326 -413 414 -562 448 -1281 690 -2220 746 -149 9
-522 11 -660 3z m695 -1653 c266 -36 486 -100 675 -196 436 -222 671 -578 720
-1094 8 -79 10 -513 7 -1405 -3 -1161 -5 -1298 -20 -1375 -81 -404 -257 -676
-576 -887 -207 -137 -486 -232 -806 -275 -133 -17 -657 -18 -780 0 -340 48
-593 135 -804 276 -306 205 -489 490 -563 877 -21 112 -21 133 -25 1344 -5
1286 -1 1465 37 1643 88 416 318 715 700 907 196 98 453 166 745 195 115 11
585 5 690 -10z"/>
</g>
</svg>
